HIERARCHY
ROOT Hips
{
	OFFSET 0.000000 0.000000 0.000000
	CHANNELS 6 Xposition Yposition Zposition Zrotation Yrotation Xrotation 
	JOINT LHipJoint
	{
		OFFSET 0.000000 0.000000 0.000000
		CHANNELS 3 Zrotation Yrotation Xrotation
		JOINT LeftUpLeg
		{
			OFFSET 1.363060 -1.794630 0.839290
			CHANNELS 3 Zrotation Yrotation Xrotation
			JOINT LeftLeg
			{
				OFFSET 2.448110 -6.726130 0.000000
				CHANNELS 3 Zrotation Yrotation Xrotation
				JOINT LeftFoot
				{
					OFFSET 2.562200 -7.039590 0.000000
					CHANNELS 3 Zrotation Yrotation Xrotation
					JOINT LeftToeBase
					{
						OFFSET 0.157640 -0.433110 2.322550
						CHANNELS 3 Zrotation Yrotation Xrotation
						End Site
						{
							OFFSET 0.000000 0.000000 0.000000
						}
					}
				}
			}
		}
	}
	JOINT RHipJoint
	{
		OFFSET 0.000000 0.000000 0.000000
		CHANNELS 3 Zrotation Yrotation Xrotation
		JOINT RightUpLeg
		{
			OFFSET -1.305520 -1.794630 0.839290
			CHANNELS 3 Zrotation Yrotation Xrotation
			JOINT RightLeg
			{
				OFFSET -2.542530 -6.985550 0.000000
				CHANNELS 3 Zrotation Yrotation Xrotation
				JOINT RightFoot
				{
					OFFSET -2.568260 -7.056230 0.000000
					CHANNELS 3 Zrotation Yrotation Xrotation
					JOINT RightToeBase
					{
						OFFSET -0.164730 -0.452590 2.363150
						CHANNELS 3 Zrotation Yrotation Xrotation
						End Site
						{
							OFFSET 0.000000 0.000000 0.000000
						}
					}
				}
			}
		}
	}
}
MOTION
Frames: 16
Frame Time: 0.008333
0.434326 17.443318 1.801186 -39.369442 -72.377672 60.787251 -12.766719 -4.540233 -2.253477 2.649683 -9.578616 -28.591585 0.121694 0.210440 14.833681 1.432486 7.949385 -3.704507 0.669900 -0.000001 -29.733500 4.504176 4.182779 2.582498 -6.240017 -5.030854 -109.109154 1.852874 -5.151076 42.500526 -1.180246 -5.324694 10.788014 -2.608300 -0.000000 -72.110700
0.438316 17.438639 1.809615 -38.891158 -72.398590 60.669038 -12.767539 -4.598290 -2.351222 2.545035 -9.599585 -28.899254 0.103092 0.210618 14.831486 1.409413 7.789409 -3.700479 0.657100 0.000000 -29.668800 4.611097 4.049848 2.994450 -6.618727 -5.226895 -107.020916 2.330453 -4.376763 36.342050 -1.188296 -5.508636 10.971793 -2.793800 -0.000000 -72.380800
0.441019 17.434537 1.817961 -38.435613 -72.381430 60.524986 -12.768195 -4.651433 -2.449923 2.451676 -9.593647 -29.141848 0.084225 0.210746 14.807764 1.382216 7.605354 -3.697079 0.641700 0.000001 -29.622300 4.695568 3.948315 3.385992 -6.953280 -5.393271 -104.524426 2.736365 -3.453539 29.721359 -1.205772 -5.764526 11.225025 -3.005900 0.000001 -72.756300
0.442409 17.431018 1.825678 -37.974093 -72.309604 60.291067 -12.763950 -4.693398 -2.542293 2.362246 -9.566846 -29.291857 0.063827 0.211124 14.766886 1.349881 7.391891 -3.696483 0.622700 0.000000 -29.595700 4.747871 3.899875 3.715642 -7.241103 -5.557844 -101.562676 3.029931 -2.400750 22.700438 -1.230801 -6.098155 11.571627 -3.241300 0.000000 -73.211200
0.442244 17.427960 1.832189 -37.472040 -72.166064 59.894830 -12.751418 -4.716714 -2.618165 2.269436 -9.525551 -29.319878 0.040321 0.212383 14.715650 1.311030 7.140566 -3.702501 0.598900 0.000000 -29.589700 4.761306 3.923512 3.933042 -7.481172 -5.746806 -98.109248 3.175989 -1.277680 15.432716 -1.257872 -6.503893 12.034054 -3.493000 -0.000001 -73.630800
0.440102 17.425231 1.836238 -36.852778 -71.947364 59.223796 -12.721617 -4.710970 -2.667916 2.147265 -9.502451 -29.183700 0.011482 0.213544 14.647111 1.267112 6.864169 -3.714196 0.571700 0.000000 -29.596100 4.743401 4.030646 3.991671 -7.670504 -5.991938 -94.224648 3.164962 -0.186705 8.206389 -1.271677 -6.920996 12.609350 -3.732100 -0.000000 -73.968400
0.435580 17.422612 1.836922 -36.052954 -71.660751 58.200984 -12.669224 -4.670086 -2.686595 1.972273 -9.528966 -28.859664 -0.024536 0.213318 14.556039 1.220136 6.577877 -3.731969 0.542500 0.000001 -29.603400 4.710142 4.211191 3.872364 -7.766421 -6.308089 -90.081468 3.037418 0.762995 1.392672 -1.245979 -7.207376 13.231191 -3.893800 0.000000 -74.121600
0.428323 17.419904 1.833623 -35.039895 -71.327019 56.812809 -12.590936 -4.594062 -2.675341 1.726241 -9.635277 -28.352909 -0.068213 0.209327 14.434679 1.173809 6.307606 -3.752803 0.514400 -0.000000 -29.598300 4.681609 4.435539 3.596860 -7.677619 -6.698245 -85.955270 2.873797 1.502986 -4.639412 -1.148930 -7.141714 13.784002 -3.876400 0.000000 -74.096800
0.417947 17.416970 1.826548 -33.851053 -70.971296 55.153451 -12.489628 -4.490632 -2.637338 1.413929 -9.824259 -27.721130 -0.118139 0.199441 14.288573 1.131048 6.070417 -3.774861 0.489500 0.000000 -29.575001 4.671329 4.665073 3.223911 -7.325223 -7.149577 -82.119771 2.748074 2.032856 -9.659298 -0.966572 -6.555277 14.167731 -3.604800 0.000000 -73.990700
0.404367 17.413707 1.816474 -32.536746 -70.711659 53.509781 -12.392569 -4.414977 -2.665667 1.055021 -10.080816 -27.118593 -0.173322 0.184464 14.125211 1.092823 5.869004 -3.799873 0.467800 -0.000000 -29.540200 4.746877 4.693724 3.122882 -7.270362 -7.460258 -82.082700 2.872484 1.842327 -7.602565 -0.451248 -5.264235 10.887068 -3.112200 -0.000000 -73.933500
0.387300 17.410023 1.804322 -31.253239 -70.471619 51.935267 -12.290839 -4.334715 -2.674694 0.693692 -10.344873 -26.579618 -0.229088 0.164331 13.991347 1.057704 5.683175 -3.836887 0.447400 -0.000000 -29.499600 4.836069 4.674904 3.057916 -7.141837 -7.717542 -82.681723 3.080067 1.497744 -4.179281 -0.032093 -3.723896 7.241203 -2.523400 -0.000000 -74.002900
0.367094 17.405986 1.790337 -30.075589 -70.246255 50.481220 -12.180874 -4.241673 -2.639136 0.343530 -10.591449 -26.125407 -0.283301 0.139166 13.896627 1.027302 5.520839 -3.885198 0.429200 -0.000000 -29.458800 4.925911 4.657408 2.962157 -6.931137 -7.909532 -82.691708 3.262522 1.219482 -1.583637 0.191896 -2.324866 4.495544 -1.974600 -0.000000 -74.252400
0.343770 17.401620 1.775115 -29.028236 -70.059373 49.203126 -12.065962 -4.140495 -2.563528 0.011305 -10.811057 -25.790947 -0.334994 0.109655 13.848116 1.003038 5.389296 -3.949134 0.413300 0.000000 -29.409799 5.028215 4.630273 2.866895 -6.754968 -7.981310 -82.106147 3.385589 1.024205 0.149334 0.282215 -1.277413 2.673015 -1.556800 0.000001 -74.698100
0.317738 17.396969 1.759576 -28.143453 -69.925469 48.146296 -11.951903 -4.034364 -2.450853 -0.290607 -10.991688 -25.596209 -0.382836 0.077357 13.853229 0.985252 5.288319 -4.033445 0.399000 0.000001 -29.356400 5.148698 4.585272 2.784634 -6.631422 -7.896298 -80.932556 3.435792 0.921661 0.990481 0.304037 -0.673244 1.817485 -1.308200 -0.000000 -75.387700
0.289620 17.392440 1.743352 -27.408849 -69.871144 47.281291 -11.834292 -3.923025 -2.314212 -0.583108 -11.133036 -25.488689 -0.428057 0.042016 13.875511 0.976275 5.239623 -4.126441 0.388600 0.000000 -29.290100 5.294293 4.522086 2.707888 -6.559162 -7.638113 -79.160026 3.405685 0.911396 0.935164 0.296116 -0.513656 1.948414 -1.226099 0.000000 -76.244700
0.259832 17.388132 1.726683 -26.833189 -69.902035 46.601947 -11.716055 -3.806405 -2.157744 -0.866203 -11.224139 -25.449584 -0.471113 0.004976 13.909803 0.975222 5.237084 -4.228559 0.381100 0.000000 -29.216100 5.464433 4.438358 2.625158 -6.468632 -7.219368 -76.822493 3.308512 0.984777 0.003530 0.266865 -0.740425 3.103771 -1.285701 -0.000000 -77.252400
